<?xml version="1.0" encoding="utf-8"?>
<svg xmlns="http://www.w3.org/2000/svg" xmlns:xlink="http://www.w3.org/1999/xlink" style="margin: auto; background: rgb(122, 206, 255); display: block; z-index: 1; position: relative; shape-rendering: auto;" width="1368" height="713" preserveAspectRatio="xMidYMid" viewBox="0 0 1368 713">
<g transform="translate(684,356.5) scale(1,1) translate(-684,-356.5)"><g transform="translate(-100 379.4752907067888) rotate(0)">
  <animateTransform attributeName="transform" type="translate" keyTimes="0;1" values="-100 379.4752907067888;1368 379.4752907067888" dur="37.03703703703703s" repeatCount="indefinite" begin="-19.721943020875756s"></animateTransform>
  <path d="M84.717,33.597c0.791-2.503,1.186-5.138,1.186-7.773C85.903,11.594,74.308,0,60.079,0 c-9.881,0-18.445,5.534-22.793,13.702c-1.581-0.527-3.426-0.791-5.138-0.791c-9.486,0-17.128,7.642-17.128,17.128 c0,1.186,0.132,2.372,0.395,3.426C6.719,34.783,0,42.424,0,51.515C0,61.66,8.169,69.829,18.314,69.829h63.373 C91.831,69.829,100,61.66,100,51.515C99.868,42.556,93.281,35.046,84.717,33.597z" fill="#bddeff" transform="scale(0.55)"></path>
</g><g transform="translate(-100 612.4531765454675) rotate(0)">
  <animateTransform attributeName="transform" type="translate" keyTimes="0;1" values="-100 612.4531765454675;1368 612.4531765454675" dur="37.03703703703703s" repeatCount="indefinite" begin="-27.829741755831982s"></animateTransform>
  <path d="M84.717,33.597c0.791-2.503,1.186-5.138,1.186-7.773C85.903,11.594,74.308,0,60.079,0 c-9.881,0-18.445,5.534-22.793,13.702c-1.581-0.527-3.426-0.791-5.138-0.791c-9.486,0-17.128,7.642-17.128,17.128 c0,1.186,0.132,2.372,0.395,3.426C6.719,34.783,0,42.424,0,51.515C0,61.66,8.169,69.829,18.314,69.829h63.373 C91.831,69.829,100,61.66,100,51.515C99.868,42.556,93.281,35.046,84.717,33.597z" fill="#bddeff" transform="scale(0.55)"></path>
</g><g transform="translate(-100 232.28561662042446) rotate(0)">
  <animateTransform attributeName="transform" type="translate" keyTimes="0;1" values="-100 232.28561662042446;1368 232.28561662042446" dur="37.03703703703703s" repeatCount="indefinite" begin="-12.927897547325466s"></animateTransform>
  <path d="M84.717,33.597c0.791-2.503,1.186-5.138,1.186-7.773C85.903,11.594,74.308,0,60.079,0 c-9.881,0-18.445,5.534-22.793,13.702c-1.581-0.527-3.426-0.791-5.138-0.791c-9.486,0-17.128,7.642-17.128,17.128 c0,1.186,0.132,2.372,0.395,3.426C6.719,34.783,0,42.424,0,51.515C0,61.66,8.169,69.829,18.314,69.829h63.373 C91.831,69.829,100,61.66,100,51.515C99.868,42.556,93.281,35.046,84.717,33.597z" fill="#bddeff" transform="scale(0.55)"></path>
</g><g transform="translate(-100 338.6615854826821) rotate(0)">
  <animateTransform attributeName="transform" type="translate" keyTimes="0;1" values="-100 338.6615854826821;1368 338.6615854826821" dur="37.03703703703703s" repeatCount="indefinite" begin="-2.846176824292585s"></animateTransform>
  <path d="M84.717,33.597c0.791-2.503,1.186-5.138,1.186-7.773C85.903,11.594,74.308,0,60.079,0 c-9.881,0-18.445,5.534-22.793,13.702c-1.581-0.527-3.426-0.791-5.138-0.791c-9.486,0-17.128,7.642-17.128,17.128 c0,1.186,0.132,2.372,0.395,3.426C6.719,34.783,0,42.424,0,51.515C0,61.66,8.169,69.829,18.314,69.829h63.373 C91.831,69.829,100,61.66,100,51.515C99.868,42.556,93.281,35.046,84.717,33.597z" fill="#bddeff" transform="scale(0.55)"></path>
</g><g transform="translate(-100 388.27120523322395) rotate(0)">
  <animateTransform attributeName="transform" type="translate" keyTimes="0;1" values="-100 388.27120523322395;1368 388.27120523322395" dur="37.03703703703703s" repeatCount="indefinite" begin="-22.07502371683229s"></animateTransform>
  <path d="M84.717,33.597c0.791-2.503,1.186-5.138,1.186-7.773C85.903,11.594,74.308,0,60.079,0 c-9.881,0-18.445,5.534-22.793,13.702c-1.581-0.527-3.426-0.791-5.138-0.791c-9.486,0-17.128,7.642-17.128,17.128 c0,1.186,0.132,2.372,0.395,3.426C6.719,34.783,0,42.424,0,51.515C0,61.66,8.169,69.829,18.314,69.829h63.373 C91.831,69.829,100,61.66,100,51.515C99.868,42.556,93.281,35.046,84.717,33.597z" fill="#bddeff" transform="scale(0.55)"></path>
</g><g transform="translate(-100 302.48997659937856) rotate(0)">
  <animateTransform attributeName="transform" type="translate" keyTimes="0;1" values="-100 302.48997659937856;1368 302.48997659937856" dur="37.03703703703703s" repeatCount="indefinite" begin="-30.296196220472567s"></animateTransform>
  <path d="M84.717,33.597c0.791-2.503,1.186-5.138,1.186-7.773C85.903,11.594,74.308,0,60.079,0 c-9.881,0-18.445,5.534-22.793,13.702c-1.581-0.527-3.426-0.791-5.138-0.791c-9.486,0-17.128,7.642-17.128,17.128 c0,1.186,0.132,2.372,0.395,3.426C6.719,34.783,0,42.424,0,51.515C0,61.66,8.169,69.829,18.314,69.829h63.373 C91.831,69.829,100,61.66,100,51.515C99.868,42.556,93.281,35.046,84.717,33.597z" fill="#bddeff" transform="scale(0.55)"></path>
</g><g transform="translate(-100 591.5577637687531) rotate(0)">
  <animateTransform attributeName="transform" type="translate" keyTimes="0;1" values="-100 591.5577637687531;1368 591.5577637687531" dur="37.03703703703703s" repeatCount="indefinite" begin="-6.748868109302303s"></animateTransform>
  <path d="M84.717,33.597c0.791-2.503,1.186-5.138,1.186-7.773C85.903,11.594,74.308,0,60.079,0 c-9.881,0-18.445,5.534-22.793,13.702c-1.581-0.527-3.426-0.791-5.138-0.791c-9.486,0-17.128,7.642-17.128,17.128 c0,1.186,0.132,2.372,0.395,3.426C6.719,34.783,0,42.424,0,51.515C0,61.66,8.169,69.829,18.314,69.829h63.373 C91.831,69.829,100,61.66,100,51.515C99.868,42.556,93.281,35.046,84.717,33.597z" fill="#bddeff" transform="scale(0.55)"></path>
</g><g transform="translate(-100 494.0620111583852) rotate(0)">
  <animateTransform attributeName="transform" type="translate" keyTimes="0;1" values="-100 494.0620111583852;1368 494.0620111583852" dur="37.03703703703703s" repeatCount="indefinite" begin="-2.768116439976151s"></animateTransform>
  <path d="M84.717,33.597c0.791-2.503,1.186-5.138,1.186-7.773C85.903,11.594,74.308,0,60.079,0 c-9.881,0-18.445,5.534-22.793,13.702c-1.581-0.527-3.426-0.791-5.138-0.791c-9.486,0-17.128,7.642-17.128,17.128 c0,1.186,0.132,2.372,0.395,3.426C6.719,34.783,0,42.424,0,51.515C0,61.66,8.169,69.829,18.314,69.829h63.373 C91.831,69.829,100,61.66,100,51.515C99.868,42.556,93.281,35.046,84.717,33.597z" fill="#bddeff" transform="scale(0.55)"></path>
</g><g transform="translate(-100 488.0677201789078) rotate(0)">
  <animateTransform attributeName="transform" type="translate" keyTimes="0;1" values="-100 488.0677201789078;1368 488.0677201789078" dur="37.03703703703703s" repeatCount="indefinite" begin="-27.620952748561137s"></animateTransform>
  <path d="M84.717,33.597c0.791-2.503,1.186-5.138,1.186-7.773C85.903,11.594,74.308,0,60.079,0 c-9.881,0-18.445,5.534-22.793,13.702c-1.581-0.527-3.426-0.791-5.138-0.791c-9.486,0-17.128,7.642-17.128,17.128 c0,1.186,0.132,2.372,0.395,3.426C6.719,34.783,0,42.424,0,51.515C0,61.66,8.169,69.829,18.314,69.829h63.373 C91.831,69.829,100,61.66,100,51.515C99.868,42.556,93.281,35.046,84.717,33.597z" fill="#bddeff" transform="scale(0.55)"></path>
</g><g transform="translate(-100 177.60409845104687) rotate(0)">
  <animateTransform attributeName="transform" type="translate" keyTimes="0;1" values="-100 177.60409845104687;1368 177.60409845104687" dur="37.03703703703703s" repeatCount="indefinite" begin="-10.779357711574297s"></animateTransform>
  <path d="M84.717,33.597c0.791-2.503,1.186-5.138,1.186-7.773C85.903,11.594,74.308,0,60.079,0 c-9.881,0-18.445,5.534-22.793,13.702c-1.581-0.527-3.426-0.791-5.138-0.791c-9.486,0-17.128,7.642-17.128,17.128 c0,1.186,0.132,2.372,0.395,3.426C6.719,34.783,0,42.424,0,51.515C0,61.66,8.169,69.829,18.314,69.829h63.373 C91.831,69.829,100,61.66,100,51.515C99.868,42.556,93.281,35.046,84.717,33.597z" fill="#bddeff" transform="scale(0.55)"></path>
</g><g transform="translate(-100 596.1254599624792) rotate(0)">
  <animateTransform attributeName="transform" type="translate" keyTimes="0;1" values="-100 596.1254599624792;1368 596.1254599624792" dur="37.03703703703703s" repeatCount="indefinite" begin="-3.7902859351997487s"></animateTransform>
  <path d="M84.717,33.597c0.791-2.503,1.186-5.138,1.186-7.773C85.903,11.594,74.308,0,60.079,0 c-9.881,0-18.445,5.534-22.793,13.702c-1.581-0.527-3.426-0.791-5.138-0.791c-9.486,0-17.128,7.642-17.128,17.128 c0,1.186,0.132,2.372,0.395,3.426C6.719,34.783,0,42.424,0,51.515C0,61.66,8.169,69.829,18.314,69.829h63.373 C91.831,69.829,100,61.66,100,51.515C99.868,42.556,93.281,35.046,84.717,33.597z" fill="#bddeff" transform="scale(0.55)"></path>
</g><g transform="translate(-100 45.33359537349885) rotate(0)">
  <animateTransform attributeName="transform" type="translate" keyTimes="0;1" values="-100 45.33359537349885;1368 45.33359537349885" dur="18.518518518518515s" repeatCount="indefinite" begin="-12.263197837284588s"></animateTransform>
  <path d="M84.717,33.597c0.791-2.503,1.186-5.138,1.186-7.773C85.903,11.594,74.308,0,60.079,0 c-9.881,0-18.445,5.534-22.793,13.702c-1.581-0.527-3.426-0.791-5.138-0.791c-9.486,0-17.128,7.642-17.128,17.128 c0,1.186,0.132,2.372,0.395,3.426C6.719,34.783,0,42.424,0,51.515C0,61.66,8.169,69.829,18.314,69.829h63.373 C91.831,69.829,100,61.66,100,51.515C99.868,42.556,93.281,35.046,84.717,33.597z" fill="#ffffff" transform="scale(0.7)"></path>
</g><g transform="translate(-100 307.12506379614433) rotate(0)">
  <animateTransform attributeName="transform" type="translate" keyTimes="0;1" values="-100 307.12506379614433;1368 307.12506379614433" dur="18.518518518518515s" repeatCount="indefinite" begin="-32.04721301814543s"></animateTransform>
  <path d="M84.717,33.597c0.791-2.503,1.186-5.138,1.186-7.773C85.903,11.594,74.308,0,60.079,0 c-9.881,0-18.445,5.534-22.793,13.702c-1.581-0.527-3.426-0.791-5.138-0.791c-9.486,0-17.128,7.642-17.128,17.128 c0,1.186,0.132,2.372,0.395,3.426C6.719,34.783,0,42.424,0,51.515C0,61.66,8.169,69.829,18.314,69.829h63.373 C91.831,69.829,100,61.66,100,51.515C99.868,42.556,93.281,35.046,84.717,33.597z" fill="#ffffff" transform="scale(0.7)"></path>
</g><g transform="translate(-100 470.79151424076025) rotate(0)">
  <animateTransform attributeName="transform" type="translate" keyTimes="0;1" values="-100 470.79151424076025;1368 470.79151424076025" dur="18.518518518518515s" repeatCount="indefinite" begin="-17.231428662440738s"></animateTransform>
  <path d="M84.717,33.597c0.791-2.503,1.186-5.138,1.186-7.773C85.903,11.594,74.308,0,60.079,0 c-9.881,0-18.445,5.534-22.793,13.702c-1.581-0.527-3.426-0.791-5.138-0.791c-9.486,0-17.128,7.642-17.128,17.128 c0,1.186,0.132,2.372,0.395,3.426C6.719,34.783,0,42.424,0,51.515C0,61.66,8.169,69.829,18.314,69.829h63.373 C91.831,69.829,100,61.66,100,51.515C99.868,42.556,93.281,35.046,84.717,33.597z" fill="#ffffff" transform="scale(0.7)"></path>
</g><g transform="translate(-100 67.10510688074547) rotate(0)">
  <animateTransform attributeName="transform" type="translate" keyTimes="0;1" values="-100 67.10510688074547;1368 67.10510688074547" dur="18.518518518518515s" repeatCount="indefinite" begin="-3.989436654681116s"></animateTransform>
  <path d="M84.717,33.597c0.791-2.503,1.186-5.138,1.186-7.773C85.903,11.594,74.308,0,60.079,0 c-9.881,0-18.445,5.534-22.793,13.702c-1.581-0.527-3.426-0.791-5.138-0.791c-9.486,0-17.128,7.642-17.128,17.128 c0,1.186,0.132,2.372,0.395,3.426C6.719,34.783,0,42.424,0,51.515C0,61.66,8.169,69.829,18.314,69.829h63.373 C91.831,69.829,100,61.66,100,51.515C99.868,42.556,93.281,35.046,84.717,33.597z" fill="#ffffff" transform="scale(0.7)"></path>
</g><g transform="translate(-100 114.22546100686607) rotate(0)">
  <animateTransform attributeName="transform" type="translate" keyTimes="0;1" values="-100 114.22546100686607;1368 114.22546100686607" dur="18.518518518518515s" repeatCount="indefinite" begin="-12.342594878189702s"></animateTransform>
  <path d="M84.717,33.597c0.791-2.503,1.186-5.138,1.186-7.773C85.903,11.594,74.308,0,60.079,0 c-9.881,0-18.445,5.534-22.793,13.702c-1.581-0.527-3.426-0.791-5.138-0.791c-9.486,0-17.128,7.642-17.128,17.128 c0,1.186,0.132,2.372,0.395,3.426C6.719,34.783,0,42.424,0,51.515C0,61.66,8.169,69.829,18.314,69.829h63.373 C91.831,69.829,100,61.66,100,51.515C99.868,42.556,93.281,35.046,84.717,33.597z" fill="#ffffff" transform="scale(0.7)"></path>
</g><g transform="translate(-100 303.8996094748562) rotate(0)">
  <animateTransform attributeName="transform" type="translate" keyTimes="0;1" values="-100 303.8996094748562;1368 303.8996094748562" dur="18.518518518518515s" repeatCount="indefinite" begin="-2.363135701345403s"></animateTransform>
  <path d="M84.717,33.597c0.791-2.503,1.186-5.138,1.186-7.773C85.903,11.594,74.308,0,60.079,0 c-9.881,0-18.445,5.534-22.793,13.702c-1.581-0.527-3.426-0.791-5.138-0.791c-9.486,0-17.128,7.642-17.128,17.128 c0,1.186,0.132,2.372,0.395,3.426C6.719,34.783,0,42.424,0,51.515C0,61.66,8.169,69.829,18.314,69.829h63.373 C91.831,69.829,100,61.66,100,51.515C99.868,42.556,93.281,35.046,84.717,33.597z" fill="#ffffff" transform="scale(0.7)"></path>
</g><g transform="translate(-100 649.2479344476923) rotate(0)">
  <animateTransform attributeName="transform" type="translate" keyTimes="0;1" values="-100 649.2479344476923;1368 649.2479344476923" dur="18.518518518518515s" repeatCount="indefinite" begin="-3.9479371172824855s"></animateTransform>
  <path d="M84.717,33.597c0.791-2.503,1.186-5.138,1.186-7.773C85.903,11.594,74.308,0,60.079,0 c-9.881,0-18.445,5.534-22.793,13.702c-1.581-0.527-3.426-0.791-5.138-0.791c-9.486,0-17.128,7.642-17.128,17.128 c0,1.186,0.132,2.372,0.395,3.426C6.719,34.783,0,42.424,0,51.515C0,61.66,8.169,69.829,18.314,69.829h63.373 C91.831,69.829,100,61.66,100,51.515C99.868,42.556,93.281,35.046,84.717,33.597z" fill="#ffffff" transform="scale(0.7)"></path>
</g><g transform="translate(-100 152.40172770745386) rotate(0)">
  <animateTransform attributeName="transform" type="translate" keyTimes="0;1" values="-100 152.40172770745386;1368 152.40172770745386" dur="18.518518518518515s" repeatCount="indefinite" begin="-22.068561678864313s"></animateTransform>
  <path d="M84.717,33.597c0.791-2.503,1.186-5.138,1.186-7.773C85.903,11.594,74.308,0,60.079,0 c-9.881,0-18.445,5.534-22.793,13.702c-1.581-0.527-3.426-0.791-5.138-0.791c-9.486,0-17.128,7.642-17.128,17.128 c0,1.186,0.132,2.372,0.395,3.426C6.719,34.783,0,42.424,0,51.515C0,61.66,8.169,69.829,18.314,69.829h63.373 C91.831,69.829,100,61.66,100,51.515C99.868,42.556,93.281,35.046,84.717,33.597z" fill="#ffffff" transform="scale(0.7)"></path>
</g><g transform="translate(-100 619.5924898199312) rotate(0)">
  <animateTransform attributeName="transform" type="translate" keyTimes="0;1" values="-100 619.5924898199312;1368 619.5924898199312" dur="18.518518518518515s" repeatCount="indefinite" begin="-31.253300329226644s"></animateTransform>
  <path d="M84.717,33.597c0.791-2.503,1.186-5.138,1.186-7.773C85.903,11.594,74.308,0,60.079,0 c-9.881,0-18.445,5.534-22.793,13.702c-1.581-0.527-3.426-0.791-5.138-0.791c-9.486,0-17.128,7.642-17.128,17.128 c0,1.186,0.132,2.372,0.395,3.426C6.719,34.783,0,42.424,0,51.515C0,61.66,8.169,69.829,18.314,69.829h63.373 C91.831,69.829,100,61.66,100,51.515C99.868,42.556,93.281,35.046,84.717,33.597z" fill="#ffffff" transform="scale(0.7)"></path>
</g><g transform="translate(-100 486.51764076293676) rotate(0)">
  <animateTransform attributeName="transform" type="translate" keyTimes="0;1" values="-100 486.51764076293676;1368 486.51764076293676" dur="18.518518518518515s" repeatCount="indefinite" begin="-8.960220306791488s"></animateTransform>
  <path d="M84.717,33.597c0.791-2.503,1.186-5.138,1.186-7.773C85.903,11.594,74.308,0,60.079,0 c-9.881,0-18.445,5.534-22.793,13.702c-1.581-0.527-3.426-0.791-5.138-0.791c-9.486,0-17.128,7.642-17.128,17.128 c0,1.186,0.132,2.372,0.395,3.426C6.719,34.783,0,42.424,0,51.515C0,61.66,8.169,69.829,18.314,69.829h63.373 C91.831,69.829,100,61.66,100,51.515C99.868,42.556,93.281,35.046,84.717,33.597z" fill="#ffffff" transform="scale(0.7)"></path>
</g><g transform="translate(-100 694.7236144031173) rotate(0)">
  <animateTransform attributeName="transform" type="translate" keyTimes="0;1" values="-100 694.7236144031173;1368 694.7236144031173" dur="18.518518518518515s" repeatCount="indefinite" begin="-28.573771196986737s"></animateTransform>
  <path d="M84.717,33.597c0.791-2.503,1.186-5.138,1.186-7.773C85.903,11.594,74.308,0,60.079,0 c-9.881,0-18.445,5.534-22.793,13.702c-1.581-0.527-3.426-0.791-5.138-0.791c-9.486,0-17.128,7.642-17.128,17.128 c0,1.186,0.132,2.372,0.395,3.426C6.719,34.783,0,42.424,0,51.515C0,61.66,8.169,69.829,18.314,69.829h63.373 C91.831,69.829,100,61.66,100,51.515C99.868,42.556,93.281,35.046,84.717,33.597z" fill="#ffffff" transform="scale(0.7)"></path>
</g><g transform="translate(-100 632.6295481673437) rotate(0)">
  <animateTransform attributeName="transform" type="translate" keyTimes="0;1" values="-100 632.6295481673437;1368 632.6295481673437" dur="12.345679012345677s" repeatCount="indefinite" begin="-30.090732575868365s"></animateTransform>
  <path d="M84.717,33.597c0.791-2.503,1.186-5.138,1.186-7.773C85.903,11.594,74.308,0,60.079,0 c-9.881,0-18.445,5.534-22.793,13.702c-1.581-0.527-3.426-0.791-5.138-0.791c-9.486,0-17.128,7.642-17.128,17.128 c0,1.186,0.132,2.372,0.395,3.426C6.719,34.783,0,42.424,0,51.515C0,61.66,8.169,69.829,18.314,69.829h63.373 C91.831,69.829,100,61.66,100,51.515C99.868,42.556,93.281,35.046,84.717,33.597z" fill="#f1f2f3" transform="scale(0.85)"></path>
</g><g transform="translate(-100 92.38956529451075) rotate(0)">
  <animateTransform attributeName="transform" type="translate" keyTimes="0;1" values="-100 92.38956529451075;1368 92.38956529451075" dur="12.345679012345677s" repeatCount="indefinite" begin="-22.366481144478364s"></animateTransform>
  <path d="M84.717,33.597c0.791-2.503,1.186-5.138,1.186-7.773C85.903,11.594,74.308,0,60.079,0 c-9.881,0-18.445,5.534-22.793,13.702c-1.581-0.527-3.426-0.791-5.138-0.791c-9.486,0-17.128,7.642-17.128,17.128 c0,1.186,0.132,2.372,0.395,3.426C6.719,34.783,0,42.424,0,51.515C0,61.66,8.169,69.829,18.314,69.829h63.373 C91.831,69.829,100,61.66,100,51.515C99.868,42.556,93.281,35.046,84.717,33.597z" fill="#f1f2f3" transform="scale(0.85)"></path>
</g><g transform="translate(-100 362.93644056342595) rotate(0)">
  <animateTransform attributeName="transform" type="translate" keyTimes="0;1" values="-100 362.93644056342595;1368 362.93644056342595" dur="12.345679012345677s" repeatCount="indefinite" begin="-36.448649992286754s"></animateTransform>
  <path d="M84.717,33.597c0.791-2.503,1.186-5.138,1.186-7.773C85.903,11.594,74.308,0,60.079,0 c-9.881,0-18.445,5.534-22.793,13.702c-1.581-0.527-3.426-0.791-5.138-0.791c-9.486,0-17.128,7.642-17.128,17.128 c0,1.186,0.132,2.372,0.395,3.426C6.719,34.783,0,42.424,0,51.515C0,61.66,8.169,69.829,18.314,69.829h63.373 C91.831,69.829,100,61.66,100,51.515C99.868,42.556,93.281,35.046,84.717,33.597z" fill="#f1f2f3" transform="scale(0.85)"></path>
</g><g transform="translate(-100 459.74436227623283) rotate(0)">
  <animateTransform attributeName="transform" type="translate" keyTimes="0;1" values="-100 459.74436227623283;1368 459.74436227623283" dur="12.345679012345677s" repeatCount="indefinite" begin="-16.767121034991682s"></animateTransform>
  <path d="M84.717,33.597c0.791-2.503,1.186-5.138,1.186-7.773C85.903,11.594,74.308,0,60.079,0 c-9.881,0-18.445,5.534-22.793,13.702c-1.581-0.527-3.426-0.791-5.138-0.791c-9.486,0-17.128,7.642-17.128,17.128 c0,1.186,0.132,2.372,0.395,3.426C6.719,34.783,0,42.424,0,51.515C0,61.66,8.169,69.829,18.314,69.829h63.373 C91.831,69.829,100,61.66,100,51.515C99.868,42.556,93.281,35.046,84.717,33.597z" fill="#f1f2f3" transform="scale(0.85)"></path>
</g><g transform="translate(-100 52.10734243320789) rotate(0)">
  <animateTransform attributeName="transform" type="translate" keyTimes="0;1" values="-100 52.10734243320789;1368 52.10734243320789" dur="12.345679012345677s" repeatCount="indefinite" begin="-13.059492856229502s"></animateTransform>
  <path d="M84.717,33.597c0.791-2.503,1.186-5.138,1.186-7.773C85.903,11.594,74.308,0,60.079,0 c-9.881,0-18.445,5.534-22.793,13.702c-1.581-0.527-3.426-0.791-5.138-0.791c-9.486,0-17.128,7.642-17.128,17.128 c0,1.186,0.132,2.372,0.395,3.426C6.719,34.783,0,42.424,0,51.515C0,61.66,8.169,69.829,18.314,69.829h63.373 C91.831,69.829,100,61.66,100,51.515C99.868,42.556,93.281,35.046,84.717,33.597z" fill="#f1f2f3" transform="scale(0.85)"></path>
</g><g transform="translate(-100 521.2945466634022) rotate(0)">
  <animateTransform attributeName="transform" type="translate" keyTimes="0;1" values="-100 521.2945466634022;1368 521.2945466634022" dur="12.345679012345677s" repeatCount="indefinite" begin="-2.446072572614557s"></animateTransform>
  <path d="M84.717,33.597c0.791-2.503,1.186-5.138,1.186-7.773C85.903,11.594,74.308,0,60.079,0 c-9.881,0-18.445,5.534-22.793,13.702c-1.581-0.527-3.426-0.791-5.138-0.791c-9.486,0-17.128,7.642-17.128,17.128 c0,1.186,0.132,2.372,0.395,3.426C6.719,34.783,0,42.424,0,51.515C0,61.66,8.169,69.829,18.314,69.829h63.373 C91.831,69.829,100,61.66,100,51.515C99.868,42.556,93.281,35.046,84.717,33.597z" fill="#f1f2f3" transform="scale(0.85)"></path>
</g><g transform="translate(-100 385.4736873909722) rotate(0)">
  <animateTransform attributeName="transform" type="translate" keyTimes="0;1" values="-100 385.4736873909722;1368 385.4736873909722" dur="12.345679012345677s" repeatCount="indefinite" begin="-0.8166653838251592s"></animateTransform>
  <path d="M84.717,33.597c0.791-2.503,1.186-5.138,1.186-7.773C85.903,11.594,74.308,0,60.079,0 c-9.881,0-18.445,5.534-22.793,13.702c-1.581-0.527-3.426-0.791-5.138-0.791c-9.486,0-17.128,7.642-17.128,17.128 c0,1.186,0.132,2.372,0.395,3.426C6.719,34.783,0,42.424,0,51.515C0,61.66,8.169,69.829,18.314,69.829h63.373 C91.831,69.829,100,61.66,100,51.515C99.868,42.556,93.281,35.046,84.717,33.597z" fill="#f1f2f3" transform="scale(0.85)"></path>
</g><g transform="translate(-100 130.0973663683251) rotate(0)">
  <animateTransform attributeName="transform" type="translate" keyTimes="0;1" values="-100 130.0973663683251;1368 130.0973663683251" dur="12.345679012345677s" repeatCount="indefinite" begin="-32.1805178742854s"></animateTransform>
  <path d="M84.717,33.597c0.791-2.503,1.186-5.138,1.186-7.773C85.903,11.594,74.308,0,60.079,0 c-9.881,0-18.445,5.534-22.793,13.702c-1.581-0.527-3.426-0.791-5.138-0.791c-9.486,0-17.128,7.642-17.128,17.128 c0,1.186,0.132,2.372,0.395,3.426C6.719,34.783,0,42.424,0,51.515C0,61.66,8.169,69.829,18.314,69.829h63.373 C91.831,69.829,100,61.66,100,51.515C99.868,42.556,93.281,35.046,84.717,33.597z" fill="#f1f2f3" transform="scale(0.85)"></path>
</g><g transform="translate(-100 175.63245203920533) rotate(0)">
  <animateTransform attributeName="transform" type="translate" keyTimes="0;1" values="-100 175.63245203920533;1368 175.63245203920533" dur="12.345679012345677s" repeatCount="indefinite" begin="-33.24961889707185s"></animateTransform>
  <path d="M84.717,33.597c0.791-2.503,1.186-5.138,1.186-7.773C85.903,11.594,74.308,0,60.079,0 c-9.881,0-18.445,5.534-22.793,13.702c-1.581-0.527-3.426-0.791-5.138-0.791c-9.486,0-17.128,7.642-17.128,17.128 c0,1.186,0.132,2.372,0.395,3.426C6.719,34.783,0,42.424,0,51.515C0,61.66,8.169,69.829,18.314,69.829h63.373 C91.831,69.829,100,61.66,100,51.515C99.868,42.556,93.281,35.046,84.717,33.597z" fill="#f1f2f3" transform="scale(0.85)"></path>
</g><g transform="translate(-100 83.26981695479076) rotate(0)">
  <animateTransform attributeName="transform" type="translate" keyTimes="0;1" values="-100 83.26981695479076;1368 83.26981695479076" dur="12.345679012345677s" repeatCount="indefinite" begin="-0.05287236225762317s"></animateTransform>
  <path d="M84.717,33.597c0.791-2.503,1.186-5.138,1.186-7.773C85.903,11.594,74.308,0,60.079,0 c-9.881,0-18.445,5.534-22.793,13.702c-1.581-0.527-3.426-0.791-5.138-0.791c-9.486,0-17.128,7.642-17.128,17.128 c0,1.186,0.132,2.372,0.395,3.426C6.719,34.783,0,42.424,0,51.515C0,61.66,8.169,69.829,18.314,69.829h63.373 C91.831,69.829,100,61.66,100,51.515C99.868,42.556,93.281,35.046,84.717,33.597z" fill="#f1f2f3" transform="scale(0.85)"></path>
</g><g transform="translate(-100 249.5864102786876) rotate(0)">
  <animateTransform attributeName="transform" type="translate" keyTimes="0;1" values="-100 249.5864102786876;1368 249.5864102786876" dur="12.345679012345677s" repeatCount="indefinite" begin="-29.484230679954983s"></animateTransform>
  <path d="M84.717,33.597c0.791-2.503,1.186-5.138,1.186-7.773C85.903,11.594,74.308,0,60.079,0 c-9.881,0-18.445,5.534-22.793,13.702c-1.581-0.527-3.426-0.791-5.138-0.791c-9.486,0-17.128,7.642-17.128,17.128 c0,1.186,0.132,2.372,0.395,3.426C6.719,34.783,0,42.424,0,51.515C0,61.66,8.169,69.829,18.314,69.829h63.373 C91.831,69.829,100,61.66,100,51.515C99.868,42.556,93.281,35.046,84.717,33.597z" fill="#f1f2f3" transform="scale(0.85)"></path>
</g><g transform="translate(-100 584.0485407118351) rotate(0)">
  <animateTransform attributeName="transform" type="translate" keyTimes="0;1" values="-100 584.0485407118351;1368 584.0485407118351" dur="9.259259259259258s" repeatCount="indefinite" begin="-33.34771137378413s"></animateTransform>
  <path d="M84.717,33.597c0.791-2.503,1.186-5.138,1.186-7.773C85.903,11.594,74.308,0,60.079,0 c-9.881,0-18.445,5.534-22.793,13.702c-1.581-0.527-3.426-0.791-5.138-0.791c-9.486,0-17.128,7.642-17.128,17.128 c0,1.186,0.132,2.372,0.395,3.426C6.719,34.783,0,42.424,0,51.515C0,61.66,8.169,69.829,18.314,69.829h63.373 C91.831,69.829,100,61.66,100,51.515C99.868,42.556,93.281,35.046,84.717,33.597z" fill="#bddeff" transform="scale(1)"></path>
</g><g transform="translate(-100 526.002327308054) rotate(0)">
  <animateTransform attributeName="transform" type="translate" keyTimes="0;1" values="-100 526.002327308054;1368 526.002327308054" dur="9.259259259259258s" repeatCount="indefinite" begin="-6.472237827303611s"></animateTransform>
  <path d="M84.717,33.597c0.791-2.503,1.186-5.138,1.186-7.773C85.903,11.594,74.308,0,60.079,0 c-9.881,0-18.445,5.534-22.793,13.702c-1.581-0.527-3.426-0.791-5.138-0.791c-9.486,0-17.128,7.642-17.128,17.128 c0,1.186,0.132,2.372,0.395,3.426C6.719,34.783,0,42.424,0,51.515C0,61.66,8.169,69.829,18.314,69.829h63.373 C91.831,69.829,100,61.66,100,51.515C99.868,42.556,93.281,35.046,84.717,33.597z" fill="#bddeff" transform="scale(1)"></path>
</g><g transform="translate(-100 507.9495362609289) rotate(0)">
  <animateTransform attributeName="transform" type="translate" keyTimes="0;1" values="-100 507.9495362609289;1368 507.9495362609289" dur="9.259259259259258s" repeatCount="indefinite" begin="-35.61852941280847s"></animateTransform>
  <path d="M84.717,33.597c0.791-2.503,1.186-5.138,1.186-7.773C85.903,11.594,74.308,0,60.079,0 c-9.881,0-18.445,5.534-22.793,13.702c-1.581-0.527-3.426-0.791-5.138-0.791c-9.486,0-17.128,7.642-17.128,17.128 c0,1.186,0.132,2.372,0.395,3.426C6.719,34.783,0,42.424,0,51.515C0,61.66,8.169,69.829,18.314,69.829h63.373 C91.831,69.829,100,61.66,100,51.515C99.868,42.556,93.281,35.046,84.717,33.597z" fill="#bddeff" transform="scale(1)"></path>
</g><g transform="translate(-100 579.9504122643832) rotate(0)">
  <animateTransform attributeName="transform" type="translate" keyTimes="0;1" values="-100 579.9504122643832;1368 579.9504122643832" dur="9.259259259259258s" repeatCount="indefinite" begin="-11.226951570744856s"></animateTransform>
  <path d="M84.717,33.597c0.791-2.503,1.186-5.138,1.186-7.773C85.903,11.594,74.308,0,60.079,0 c-9.881,0-18.445,5.534-22.793,13.702c-1.581-0.527-3.426-0.791-5.138-0.791c-9.486,0-17.128,7.642-17.128,17.128 c0,1.186,0.132,2.372,0.395,3.426C6.719,34.783,0,42.424,0,51.515C0,61.66,8.169,69.829,18.314,69.829h63.373 C91.831,69.829,100,61.66,100,51.515C99.868,42.556,93.281,35.046,84.717,33.597z" fill="#bddeff" transform="scale(1)"></path>
</g><g transform="translate(-100 429.5153122092158) rotate(0)">
  <animateTransform attributeName="transform" type="translate" keyTimes="0;1" values="-100 429.5153122092158;1368 429.5153122092158" dur="9.259259259259258s" repeatCount="indefinite" begin="-34.15739027084006s"></animateTransform>
  <path d="M84.717,33.597c0.791-2.503,1.186-5.138,1.186-7.773C85.903,11.594,74.308,0,60.079,0 c-9.881,0-18.445,5.534-22.793,13.702c-1.581-0.527-3.426-0.791-5.138-0.791c-9.486,0-17.128,7.642-17.128,17.128 c0,1.186,0.132,2.372,0.395,3.426C6.719,34.783,0,42.424,0,51.515C0,61.66,8.169,69.829,18.314,69.829h63.373 C91.831,69.829,100,61.66,100,51.515C99.868,42.556,93.281,35.046,84.717,33.597z" fill="#bddeff" transform="scale(1)"></path>
</g><g transform="translate(-100 642.7360376929433) rotate(0)">
  <animateTransform attributeName="transform" type="translate" keyTimes="0;1" values="-100 642.7360376929433;1368 642.7360376929433" dur="9.259259259259258s" repeatCount="indefinite" begin="-30.32092056125166s"></animateTransform>
  <path d="M84.717,33.597c0.791-2.503,1.186-5.138,1.186-7.773C85.903,11.594,74.308,0,60.079,0 c-9.881,0-18.445,5.534-22.793,13.702c-1.581-0.527-3.426-0.791-5.138-0.791c-9.486,0-17.128,7.642-17.128,17.128 c0,1.186,0.132,2.372,0.395,3.426C6.719,34.783,0,42.424,0,51.515C0,61.66,8.169,69.829,18.314,69.829h63.373 C91.831,69.829,100,61.66,100,51.515C99.868,42.556,93.281,35.046,84.717,33.597z" fill="#bddeff" transform="scale(1)"></path>
</g><g transform="translate(-100 383.59786501752643) rotate(0)">
  <animateTransform attributeName="transform" type="translate" keyTimes="0;1" values="-100 383.59786501752643;1368 383.59786501752643" dur="9.259259259259258s" repeatCount="indefinite" begin="-2.059916469896491s"></animateTransform>
  <path d="M84.717,33.597c0.791-2.503,1.186-5.138,1.186-7.773C85.903,11.594,74.308,0,60.079,0 c-9.881,0-18.445,5.534-22.793,13.702c-1.581-0.527-3.426-0.791-5.138-0.791c-9.486,0-17.128,7.642-17.128,17.128 c0,1.186,0.132,2.372,0.395,3.426C6.719,34.783,0,42.424,0,51.515C0,61.66,8.169,69.829,18.314,69.829h63.373 C91.831,69.829,100,61.66,100,51.515C99.868,42.556,93.281,35.046,84.717,33.597z" fill="#bddeff" transform="scale(1)"></path>
</g><g transform="translate(-100 11.908335744747014) rotate(0)">
  <animateTransform attributeName="transform" type="translate" keyTimes="0;1" values="-100 11.908335744747014;1368 11.908335744747014" dur="9.259259259259258s" repeatCount="indefinite" begin="-28.26407059122663s"></animateTransform>
  <path d="M84.717,33.597c0.791-2.503,1.186-5.138,1.186-7.773C85.903,11.594,74.308,0,60.079,0 c-9.881,0-18.445,5.534-22.793,13.702c-1.581-0.527-3.426-0.791-5.138-0.791c-9.486,0-17.128,7.642-17.128,17.128 c0,1.186,0.132,2.372,0.395,3.426C6.719,34.783,0,42.424,0,51.515C0,61.66,8.169,69.829,18.314,69.829h63.373 C91.831,69.829,100,61.66,100,51.515C99.868,42.556,93.281,35.046,84.717,33.597z" fill="#bddeff" transform="scale(1)"></path>
</g><g transform="translate(-100 606.3149730436413) rotate(0)">
  <animateTransform attributeName="transform" type="translate" keyTimes="0;1" values="-100 606.3149730436413;1368 606.3149730436413" dur="9.259259259259258s" repeatCount="indefinite" begin="-14.232596570609024s"></animateTransform>
  <path d="M84.717,33.597c0.791-2.503,1.186-5.138,1.186-7.773C85.903,11.594,74.308,0,60.079,0 c-9.881,0-18.445,5.534-22.793,13.702c-1.581-0.527-3.426-0.791-5.138-0.791c-9.486,0-17.128,7.642-17.128,17.128 c0,1.186,0.132,2.372,0.395,3.426C6.719,34.783,0,42.424,0,51.515C0,61.66,8.169,69.829,18.314,69.829h63.373 C91.831,69.829,100,61.66,100,51.515C99.868,42.556,93.281,35.046,84.717,33.597z" fill="#bddeff" transform="scale(1)"></path>
</g><g transform="translate(-100 406.2229198167926) rotate(0)">
  <animateTransform attributeName="transform" type="translate" keyTimes="0;1" values="-100 406.2229198167926;1368 406.2229198167926" dur="9.259259259259258s" repeatCount="indefinite" begin="-14.960454307103328s"></animateTransform>
  <path d="M84.717,33.597c0.791-2.503,1.186-5.138,1.186-7.773C85.903,11.594,74.308,0,60.079,0 c-9.881,0-18.445,5.534-22.793,13.702c-1.581-0.527-3.426-0.791-5.138-0.791c-9.486,0-17.128,7.642-17.128,17.128 c0,1.186,0.132,2.372,0.395,3.426C6.719,34.783,0,42.424,0,51.515C0,61.66,8.169,69.829,18.314,69.829h63.373 C91.831,69.829,100,61.66,100,51.515C99.868,42.556,93.281,35.046,84.717,33.597z" fill="#bddeff" transform="scale(1)"></path>
</g><g transform="translate(-100 611.0836785948517) rotate(0)">
  <animateTransform attributeName="transform" type="translate" keyTimes="0;1" values="-100 611.0836785948517;1368 611.0836785948517" dur="9.259259259259258s" repeatCount="indefinite" begin="-26.20202659269759s"></animateTransform>
  <path d="M84.717,33.597c0.791-2.503,1.186-5.138,1.186-7.773C85.903,11.594,74.308,0,60.079,0 c-9.881,0-18.445,5.534-22.793,13.702c-1.581-0.527-3.426-0.791-5.138-0.791c-9.486,0-17.128,7.642-17.128,17.128 c0,1.186,0.132,2.372,0.395,3.426C6.719,34.783,0,42.424,0,51.515C0,61.66,8.169,69.829,18.314,69.829h63.373 C91.831,69.829,100,61.66,100,51.515C99.868,42.556,93.281,35.046,84.717,33.597z" fill="#bddeff" transform="scale(1)"></path>
</g><g transform="translate(-100 82.29778907905045) rotate(0)">
  <animateTransform attributeName="transform" type="translate" keyTimes="0;1" values="-100 82.29778907905045;1368 82.29778907905045" dur="9.259259259259258s" repeatCount="indefinite" begin="-31.20015280063448s"></animateTransform>
  <path d="M84.717,33.597c0.791-2.503,1.186-5.138,1.186-7.773C85.903,11.594,74.308,0,60.079,0 c-9.881,0-18.445,5.534-22.793,13.702c-1.581-0.527-3.426-0.791-5.138-0.791c-9.486,0-17.128,7.642-17.128,17.128 c0,1.186,0.132,2.372,0.395,3.426C6.719,34.783,0,42.424,0,51.515C0,61.66,8.169,69.829,18.314,69.829h63.373 C91.831,69.829,100,61.66,100,51.515C99.868,42.556,93.281,35.046,84.717,33.597z" fill="#bddeff" transform="scale(1)"></path>
</g></g>
</svg>