<?xml version="1.0" encoding="UTF-8"?>
<svg xmlns="http://www.w3.org/2000/svg" xmlns:xlink="http://www.w3.org/1999/xlink" width="1125pt" height="1124.99995pt" viewBox="0 0 1125 1124.99995" version="1.2">
<defs>
<clipPath id="clip1">
  <path d="M 324.777344 360.957031 L 795.027344 360.957031 L 795.027344 637.707031 L 324.777344 637.707031 Z M 324.777344 360.957031 "/>
</clipPath>
</defs>
<g id="surface1">
<rect x="0" y="0" width="1125" height="1124.99995" style="fill:rgb(100%,100%,100%);fill-opacity:1;stroke:none;"/>
<rect x="0" y="0" width="1125" height="1124.99995" style="fill:rgb(100%,100%,100%);fill-opacity:1;stroke:none;"/>
<rect x="0" y="0" width="1125" height="1124.99995" style="fill:rgb(21.958923%,71.369934%,100%);fill-opacity:1;stroke:none;"/>
<path style=" stroke:none;fill-rule:nonzero;fill:rgb(100%,100%,100%);fill-opacity:1;" d="M 590.183594 591.023438 C 593.683594 585.554688 597.675781 580.296875 600.6875 574.617188 C 607.828125 561.15625 607.335938 547.273438 600.894531 533.8125 C 596.414062 524.417969 590.882812 515.445312 585.421875 506.539062 C 577.722656 494.0625 569.53125 481.792969 564.769531 467.769531 C 562.25 460.40625 560.777344 452.765625 558.957031 445.894531 C 558.539062 467.207031 548.105469 485.4375 537.113281 503.597656 C 530.390625 514.742188 523.53125 525.960938 518.210938 537.808594 C 510.859375 554.144531 514.5 569.5 525.492188 583.242188 C 527.382812 585.554688 529.34375 587.800781 532.003906 590.953125 C 525.773438 588.710938 521.359375 585.484375 517.511719 581.558594 C 505.46875 569.148438 501.6875 553.867188 502.945312 537.109375 C 504.417969 517.40625 511.910156 499.808594 523.109375 483.753906 C 534.941406 466.859375 547.125 450.3125 559.167969 433.554688 C 559.308594 433.414062 559.589844 433.273438 558.957031 433.625 C 570.160156 447.859375 581.222656 462.089844 592.496094 476.113281 C 604.816406 491.398438 613.777344 508.082031 616.507812 527.785156 C 619.238281 547.273438 616.089844 565.292969 602.785156 580.578125 C 599.214844 584.714844 594.664062 587.941406 590.535156 591.65625 C 590.535156 591.445312 590.394531 591.234375 590.183594 591.023438 Z M 590.183594 591.023438 "/>
<path style=" stroke:none;fill-rule:nonzero;fill:rgb(100%,100%,100%);fill-opacity:1;" d="M 574.011719 597.195312 C 581.640625 581.769531 579.683594 566.066406 575.199219 550.570312 C 571.351562 537.390625 566.238281 524.558594 561.6875 511.660156 C 561.410156 510.816406 560.917969 510.046875 560.5 509.273438 C 560.148438 509.34375 559.796875 509.34375 559.796875 509.484375 C 553.285156 525.191406 546.84375 540.964844 543.414062 557.722656 C 540.683594 571.113281 541.035156 584.152344 547.546875 596.5625 C 547.753906 596.914062 547.753906 597.40625 548.035156 598.527344 C 532.914062 587.660156 521.5 575.53125 523.25 555.757812 C 524.019531 547.484375 526.890625 539.773438 531.164062 532.761719 C 537.113281 523.015625 543.835938 513.761719 549.644531 503.945312 C 553.078125 498.199219 555.457031 491.816406 558.398438 485.789062 C 558.886719 484.804688 559.726562 484.035156 560.429688 483.195312 C 561.128906 483.894531 562.25 484.457031 562.386719 485.296875 C 564.699219 497.777344 573.101562 506.820312 579.960938 516.707031 C 585.5625 524.839844 591.164062 532.972656 594.523438 542.4375 C 599.003906 555.058594 597.675781 567.046875 590.882812 578.40625 C 586.542969 585.695312 580.871094 592.007812 574.011719 597.195312 Z M 574.011719 597.195312 "/>
<path style=" stroke:none;fill-rule:nonzero;fill:rgb(100%,100%,100%);fill-opacity:1;" d="M 486.773438 532.550781 C 478.511719 524.070312 473.261719 513.691406 468.5 502.542969 C 469.410156 502.542969 469.972656 502.542969 470.460938 502.542969 C 470.949219 502.542969 471.371094 502.542969 471.230469 502.542969 C 471.230469 494.550781 471.089844 486.628906 471.230469 478.777344 C 471.722656 459.566406 477.742188 441.96875 486.632812 425.140625 C 490.136719 418.550781 492.933594 411.679688 496.226562 404.738281 C 496.644531 405.230469 497.484375 406 498.257812 406.914062 C 504.277344 414.0625 510.71875 420.863281 516.039062 428.507812 C 520.101562 434.324219 523.109375 441.058594 525.839844 447.71875 C 528.292969 453.746094 524.582031 458.375 520.378906 462.089844 C 511.558594 470.011719 503.71875 478.707031 498.117188 489.222656 C 491.464844 501.703125 488.175781 515.023438 487.613281 529.117188 C 487.542969 530.167969 487.613281 531.21875 487.613281 532.269531 C 487.335938 532.339844 487.054688 532.410156 486.773438 532.550781 Z M 491.183594 430.75 C 490.765625 430.679688 490.273438 430.679688 489.855469 430.609375 C 487.894531 440.777344 486.003906 450.871094 484.042969 461.179688 C 483.414062 461.109375 482.433594 460.96875 481.3125 460.757812 C 480.613281 473.027344 479.84375 485.226562 482.644531 497.144531 C 483.414062 500.511719 485.09375 503.734375 486.355469 507.03125 C 486.703125 506.960938 487.054688 506.890625 487.402344 506.820312 C 490.90625 492.449219 496.367188 479.128906 507.777344 468.960938 C 504.90625 462.160156 502.175781 455.5 499.375 448.839844 C 498.046875 449.398438 497.066406 449.820312 495.804688 450.3125 C 494.195312 443.582031 492.65625 437.199219 491.183594 430.75 Z M 491.183594 430.75 "/>
<path style=" stroke:none;fill-rule:nonzero;fill:rgb(100%,100%,100%);fill-opacity:1;" d="M 623.371094 404.457031 C 629.25 415.957031 635.484375 427.035156 640.59375 438.601562 C 648.574219 456.621094 649.625 475.832031 648.226562 495.253906 C 648.085938 497.566406 647.875 499.878906 647.664062 502.402344 C 648.925781 502.402344 649.90625 502.402344 651.304688 502.402344 C 647.945312 514.324219 640.875 523.789062 633.871094 534.09375 C 632.890625 527.925781 632.121094 522.457031 631.140625 516.988281 C 627.082031 494.761719 616.648438 476.113281 599.566406 461.320312 C 592.355469 455.078125 592.425781 452.976562 596.273438 444.421875 C 603.066406 429.347656 614.199219 417.570312 623.371094 404.457031 Z M 613.707031 470.152344 C 626.589844 479.128906 630.371094 493.148438 634.640625 507.171875 C 636.113281 505.066406 637.371094 503.035156 638.003906 500.792969 C 641.714844 488.453125 640.453125 475.832031 639.894531 463.210938 C 639.894531 462.652344 639.261719 461.738281 638.914062 461.738281 C 636.460938 461.808594 636.882812 459.917969 636.671875 458.585938 C 636.324219 456.410156 636.253906 454.167969 635.832031 451.992188 C 634.292969 445.191406 632.613281 438.390625 631 431.523438 C 630.652344 431.589844 630.230469 431.589844 629.882812 431.660156 C 628.621094 437.972656 627.359375 444.351562 626.03125 450.941406 C 624.492188 449.890625 623.511719 449.261719 622.25 448.417969 C 619.378906 455.851562 616.578125 462.929688 613.707031 470.152344 Z M 613.707031 470.152344 "/>
<path style=" stroke:none;fill-rule:nonzero;fill:rgb(100%,100%,100%);fill-opacity:1;" d="M 735.953125 513.199219 C 734.761719 517.335938 733.921875 520.914062 732.730469 524.347656 C 722.230469 554.847656 700.386719 573.285156 670.277344 582.609375 C 651.164062 588.570312 631.492188 589.902344 611.609375 588.640625 C 610.488281 588.570312 609.367188 588.359375 607.757812 588.21875 C 611.328125 584.433594 615.457031 583.03125 620.007812 582.542969 C 628.480469 581.628906 636.8125 580.296875 644.65625 576.511719 C 654.597656 571.742188 663.347656 565.222656 671.398438 557.863281 C 679.382812 550.570312 686.941406 542.859375 694.714844 535.355469 C 706.195312 524.347656 720.269531 518.109375 735.953125 513.199219 Z M 652.214844 574.6875 C 652.425781 575.039062 652.566406 575.390625 652.777344 575.671875 C 674.128906 579.738281 710.328125 555.546875 711.238281 535.917969 C 691.351562 549.027344 671.820312 561.859375 652.214844 574.6875 Z M 652.214844 574.6875 "/>
<path style=" stroke:none;fill-rule:nonzero;fill:rgb(100%,100%,100%);fill-opacity:1;" d="M 512.1875 588.21875 C 487.472656 589.410156 464.230469 587.519531 441.753906 579.246094 C 430.414062 575.109375 419.980469 569.21875 411.089844 560.945312 C 397.4375 548.257812 389.316406 532.550781 385.394531 513.0625 C 392.675781 515.933594 399.328125 518.039062 405.417969 521.054688 C 417.671875 527.152344 427.402344 536.617188 436.996094 546.152344 C 444.066406 553.09375 451.066406 560.105469 458.558594 566.554688 C 469.761719 576.230469 483.34375 580.578125 497.765625 582.609375 C 502.597656 583.242188 507.359375 584.574219 512.1875 588.21875 Z M 409.199219 534.445312 C 414.378906 557.863281 449.035156 581.769531 467.03125 575.460938 C 463.109375 572.304688 458.839844 568.941406 454.636719 565.503906 C 449.386719 561.085938 444.765625 555.617188 438.886719 552.394531 C 428.734375 546.925781 418.230469 542.367188 409.199219 534.445312 Z M 409.199219 534.445312 "/>
<path style=" stroke:none;fill-rule:nonzero;fill:rgb(100%,100%,100%);fill-opacity:1;" d="M 679.941406 424.089844 C 683.371094 438.53125 684.910156 452.625 684.28125 466.929688 C 683.371094 488.382812 677.769531 508.363281 665.378906 526.101562 C 657.046875 538.019531 646.964844 547.976562 632.683594 552.671875 C 632.191406 552.8125 631.632812 552.953125 630.582031 553.304688 C 632.542969 548.1875 635.414062 544.261719 639.402344 541.597656 C 652.847656 532.761719 658.726562 519.300781 662.507812 504.578125 C 667.058594 486.769531 666.289062 468.890625 660.898438 451.363281 C 659.707031 447.4375 660.199219 444.421875 662.15625 441.195312 C 666.5 434.046875 672.730469 428.925781 679.941406 424.089844 Z M 663.277344 513.761719 C 667.96875 511.027344 671.121094 506.890625 673.5 502.195312 C 679.660156 490.273438 680.78125 477.234375 681.132812 464.125 C 681.339844 457.953125 681.132812 451.855469 681.132812 444.914062 C 676.71875 452.132812 672.800781 458.304688 669.230469 464.683594 C 668.179688 466.507812 667.898438 468.960938 667.828125 471.203125 C 667.757812 478.777344 668.667969 486.347656 667.898438 493.851562 C 667.339844 500.441406 664.957031 506.890625 663.277344 513.761719 Z M 663.277344 513.761719 "/>
<path style=" stroke:none;fill-rule:nonzero;fill:rgb(100%,100%,100%);fill-opacity:1;" d="M 488.945312 551.273438 C 483.554688 551.203125 478.863281 548.957031 474.523438 546.082031 C 461.917969 537.671875 453.308594 525.890625 447.078125 512.359375 C 434.335938 484.597656 433.703125 455.78125 440.003906 426.402344 C 440.074219 425.984375 440.355469 425.5625 440.707031 424.789062 C 448.40625 429.769531 455.128906 435.449219 459.328125 443.652344 C 460.519531 445.964844 460.519531 448.347656 459.679688 451.011719 C 451.066406 478.214844 454.359375 504.296875 468.289062 528.90625 C 471.371094 534.375 477.042969 538.371094 481.59375 543 C 484.113281 545.59375 486.914062 547.90625 489.574219 550.359375 C 489.433594 550.710938 489.15625 550.992188 488.945312 551.273438 Z M 441.265625 447.367188 C 440.914062 447.507812 440.636719 447.648438 440.285156 447.789062 C 439.445312 459.777344 439.726562 471.695312 441.683594 483.613281 C 443.085938 491.816406 444.835938 499.878906 449.808594 506.75 C 452.539062 510.535156 454.988281 512.078125 457.367188 512.007812 C 456.179688 507.664062 454.148438 503.175781 453.796875 498.617188 C 453.308594 491.675781 454.078125 484.664062 454.078125 477.726562 C 454.078125 473.097656 454.777344 467.910156 452.886719 464.054688 C 450.085938 458.023438 445.257812 452.90625 441.265625 447.367188 Z M 441.265625 447.367188 "/>
<path style=" stroke:none;fill-rule:nonzero;fill:rgb(100%,100%,100%);fill-opacity:1;" d="M 709.835938 469.523438 C 707.804688 523.367188 674.199219 564.101562 618.46875 576.230469 C 620.007812 571.253906 622.53125 567.398438 627.082031 565.433594 C 641.574219 559.265625 654.597656 550.921875 665.449219 539.421875 C 678.679688 525.402344 687.363281 509.132812 690.441406 489.996094 C 690.863281 487.261719 691.773438 485.226562 694.082031 483.332031 C 699.824219 478.777344 705.144531 473.730469 709.835938 469.523438 Z M 648.433594 559.195312 C 671.191406 554.566406 694.433594 528.203125 694.503906 507.03125 C 687.011719 516.496094 680.152344 526.03125 672.378906 534.796875 C 664.609375 543.558594 656.066406 551.550781 648.433594 559.195312 Z M 648.433594 559.195312 "/>
<path style=" stroke:none;fill-rule:nonzero;fill:rgb(100%,100%,100%);fill-opacity:1;" d="M 410.738281 468.121094 C 416.621094 473.730469 422.433594 479.335938 428.171875 485.085938 C 429.082031 485.996094 429.574219 487.46875 429.785156 488.730469 C 433.773438 514.183594 446.515625 534.585938 466.820312 549.9375 C 474.800781 555.96875 484.042969 560.457031 492.933594 565.222656 C 497.554688 567.746094 500.285156 571.253906 502.105469 576.160156 C 450.015625 565.785156 412.488281 525.820312 410.738281 468.121094 Z M 425.792969 507.101562 C 428.59375 529.398438 456.179688 559.472656 473.261719 559.195312 C 454.496094 544.609375 442.664062 524.136719 425.792969 507.101562 Z M 425.792969 507.101562 "/>
<path style=" stroke:none;fill-rule:nonzero;fill:rgb(100%,100%,100%);fill-opacity:1;" d="M 561.410156 527.503906 C 563.789062 535.355469 566.589844 543.136719 568.339844 551.0625 C 571.140625 563.539062 572.402344 576.160156 570.019531 588.921875 C 569.460938 591.867188 568.410156 594.8125 567.078125 597.40625 C 564 603.222656 557.066406 603.503906 554.128906 597.753906 C 552.027344 593.617188 550.484375 588.851562 549.996094 584.222656 C 548.246094 565.503906 551.257812 547.484375 558.679688 530.238281 C 559.097656 529.328125 559.65625 528.484375 560.148438 527.644531 C 560.566406 527.644531 560.988281 527.574219 561.410156 527.503906 Z M 561.410156 527.503906 "/>
<path style=" stroke:none;fill-rule:nonzero;fill:rgb(100%,100%,100%);fill-opacity:1;" d="M 771.867188 538.652344 C 750.863281 564.734375 725.308594 580.648438 691.492188 583.804688 C 697.09375 580.015625 702.277344 577.074219 706.757812 573.355469 C 713.476562 567.816406 719.640625 561.648438 726.21875 555.828125 C 738.542969 544.890625 752.195312 536.898438 769.558594 538.371094 C 769.976562 538.441406 770.398438 538.511719 771.867188 538.652344 Z M 715.507812 571.253906 C 728.53125 572.515625 754.503906 555.339844 754.015625 546.082031 C 747.222656 548.257812 740.292969 550.359375 733.363281 552.605469 C 732.660156 552.8125 731.960938 553.304688 731.472656 553.867188 C 726.078125 559.683594 720.757812 565.433594 715.507812 571.253906 Z M 715.507812 571.253906 "/>
<path style=" stroke:none;fill-rule:nonzero;fill:rgb(100%,100%,100%);fill-opacity:1;" d="M 427.824219 582.402344 C 399.46875 583.242188 364.878906 562.417969 350.386719 538.019531 C 359.417969 537.25 367.75 539.210938 375.734375 542.859375 C 383.925781 546.503906 390.644531 552.324219 397.085938 558.421875 C 406.398438 567.1875 415.011719 576.863281 427.824219 582.402344 Z M 406.820312 570.339844 C 405.910156 569.710938 404.859375 569.148438 404.019531 568.378906 C 400.726562 565.433594 396.667969 562.910156 394.355469 559.335938 C 390.714844 553.65625 385.535156 551.550781 379.445312 550.078125 C 375.242188 549.027344 371.253906 547.066406 367.121094 545.453125 C 367.613281 555.757812 393.585938 572.726562 406.820312 570.339844 Z M 406.820312 570.339844 "/>
<path style=" stroke:none;fill-rule:nonzero;fill:rgb(100%,100%,100%);fill-opacity:1;" d="M 581.152344 602.382812 C 582.691406 600.699219 583.394531 599.367188 584.511719 598.738281 C 591.722656 594.8125 598.867188 590.535156 607.6875 591.585938 C 622.109375 593.410156 636.460938 595.371094 650.324219 600 C 657.046875 602.242188 663.558594 604.90625 669.300781 610.726562 C 639.332031 610.726562 610.136719 612.058594 581.152344 602.382812 Z M 587.035156 602.101562 C 587.171875 602.453125 587.242188 602.875 587.382812 603.222656 C 605.65625 607.148438 624.210938 605.257812 642.695312 605.46875 C 641.992188 604.554688 641.222656 603.785156 640.382812 603.363281 C 625.261719 596.003906 609.4375 594.8125 593.195312 598.738281 C 591.023438 599.15625 589.0625 600.910156 587.035156 602.101562 Z M 587.035156 602.101562 "/>
<path style=" stroke:none;fill-rule:nonzero;fill:rgb(100%,100%,100%);fill-opacity:1;" d="M 453.167969 610.023438 C 454.988281 608.414062 456.667969 606.519531 458.699219 605.257812 C 466.960938 599.929688 476.273438 597.476562 485.792969 595.792969 C 494.617188 594.179688 503.578125 593.269531 512.398438 591.867188 C 517.089844 591.09375 521.359375 591.867188 525.5625 593.96875 C 530.113281 596.28125 534.664062 598.527344 539.703125 601.050781 C 532.914062 605.398438 525.980469 607.429688 518.839844 608.0625 C 506.308594 609.183594 493.777344 609.675781 481.171875 610.234375 C 472.769531 610.585938 464.371094 610.65625 455.96875 610.867188 C 455.199219 610.867188 454.429688 610.867188 453.65625 610.867188 C 453.519531 610.515625 453.308594 610.304688 453.167969 610.023438 Z M 534.242188 602.734375 C 526.75 592.078125 485.933594 594.878906 477.460938 606.589844 C 496.367188 603.855469 515.199219 606.871094 534.242188 602.734375 Z M 534.242188 602.734375 "/>
<path style=" stroke:none;fill-rule:nonzero;fill:rgb(100%,100%,100%);fill-opacity:1;" d="M 534.382812 445.402344 C 529.480469 434.535156 524.371094 423.949219 519.960938 413.082031 C 516.808594 405.371094 517.371094 397.308594 520.171875 389.175781 C 525.28125 390.996094 529.203125 394.152344 532.421875 398.078125 C 539.425781 406.492188 543.625 416.308594 546.914062 426.542969 C 547.125 427.246094 547.40625 428.296875 547.054688 428.789062 C 543.414062 434.046875 539.703125 439.234375 535.921875 444.421875 C 535.714844 444.914062 534.945312 445.125 534.382812 445.402344 Z M 535.152344 438.882812 C 541.175781 434.394531 543.203125 429.136719 541.105469 422.40625 C 538.375 413.714844 532.421875 407.332031 525.351562 400.953125 C 525.492188 414.835938 529.480469 427.035156 535.152344 438.882812 Z M 535.152344 438.882812 "/>
<path style=" stroke:none;fill-rule:nonzero;fill:rgb(100%,100%,100%);fill-opacity:1;" d="M 586.613281 444.5625 C 582.203125 439.234375 577.792969 434.046875 573.519531 428.71875 C 573.03125 428.15625 572.960938 426.894531 573.171875 426.125 C 577.230469 413.921875 582.832031 402.707031 592.074219 393.519531 C 593.753906 391.839844 595.855469 390.507812 598.027344 388.753906 C 603.488281 397.027344 603.976562 405.511719 600.40625 414.203125 C 598.65625 418.410156 596.414062 422.335938 594.523438 426.472656 C 591.933594 432.152344 589.484375 437.902344 586.613281 444.5625 Z M 585.703125 438.324219 C 592.703125 425.351562 597.675781 408.875 593.824219 400.53125 C 589.34375 407.472656 584.722656 413.855469 580.941406 420.722656 C 576.953125 428.085938 578.5625 433.0625 585.703125 438.324219 Z M 585.703125 438.324219 "/>
<path style=" stroke:none;fill-rule:nonzero;fill:rgb(100%,100%,100%);fill-opacity:1;" d="M 559.867188 375.503906 C 571.980469 387.984375 571.421875 402.636719 568.480469 418.691406 C 563.367188 413.644531 563.296875 407.332031 561.269531 401.445312 C 556.578125 406.210938 556.859375 413.082031 553.707031 418.339844 C 548.105469 411.257812 549.296875 387.351562 559.867188 375.503906 Z M 559.867188 375.503906 "/>
<path style=" stroke:none;fill-rule:nonzero;fill:rgb(100%,100%,100%);fill-opacity:1;" d="M 495.945312 621.664062 C 500.007812 617.457031 505.046875 615.914062 510.296875 614.792969 C 517.019531 613.390625 523.8125 612.269531 530.460938 610.726562 C 535.433594 609.535156 540.195312 607.570312 543.554688 603.292969 C 544.046875 602.664062 545.445312 602.382812 546.214844 602.59375 C 549.785156 603.503906 553.355469 604.625 557.207031 605.816406 C 556.4375 611.777344 553.496094 616.335938 548.246094 618.578125 C 544.046875 620.332031 539.355469 621.734375 534.875 621.875 C 522.339844 622.292969 509.738281 622.015625 497.207031 622.015625 C 496.855469 622.015625 496.574219 621.804688 495.945312 621.664062 Z M 519.539062 617.175781 C 528.152344 619.699219 536.832031 621.101562 545.375 617.527344 C 549.4375 615.84375 552.65625 612.898438 553.988281 607.921875 C 541.664062 609.042969 530.53125 612.546875 519.539062 617.175781 Z M 519.539062 617.175781 "/>
<path style=" stroke:none;fill-rule:nonzero;fill:rgb(100%,100%,100%);fill-opacity:1;" d="M 624.558594 621.101562 C 611.75 621.664062 600.125 622.503906 588.503906 622.503906 C 583.53125 622.503906 578.28125 621.3125 573.589844 619.558594 C 567.5 617.316406 564.417969 611.988281 563.019531 605.398438 C 567.148438 604.484375 571.210938 603.574219 575.269531 602.734375 C 575.761719 602.664062 576.53125 602.804688 576.8125 603.082031 C 583.253906 611.078125 592.773438 611.917969 601.804688 613.878906 C 607.828125 615.144531 613.777344 616.683594 619.730469 618.296875 C 621.199219 618.648438 622.460938 619.839844 624.558594 621.101562 Z M 566.308594 609.042969 C 572.890625 619.558594 588.921875 622.015625 601.667969 616.964844 C 593.683594 614.230469 586.054688 611.285156 578.140625 609.183594 C 574.640625 608.273438 570.648438 609.042969 566.308594 609.042969 Z M 566.308594 609.042969 "/>
<g clip-path="url(#clip1)" clip-rule="nonzero">
<path style=" stroke:none;fill-rule:nonzero;fill:rgb(0%,24.708557%,37.249756%);fill-opacity:1;" d="M 372.300781 527.082031 C 369.433594 514.394531 366.5625 501.914062 363.761719 489.503906 C 364.109375 489.292969 364.53125 489.011719 364.878906 488.800781 C 377.691406 500.300781 395.476562 501.210938 409.621094 510.605469 C 401.21875 485.15625 398.277344 459.355469 402.339844 432.082031 C 409.199219 444.492188 415.5 456.480469 428.171875 464.683594 C 429.574219 443.441406 430.972656 422.828125 432.304688 402.355469 C 442.945312 412.941406 457.789062 419.8125 466.191406 434.257812 C 476.0625 417.710938 487.265625 402.285156 485.582031 380.902344 C 493.636719 387.914062 500.777344 394.152344 508.199219 400.601562 C 510.859375 390.507812 516.109375 381.042969 510.160156 369.824219 C 524.441406 374.871094 532.632812 385.597656 540.753906 395.835938 C 544.675781 389.386719 548.734375 383.144531 552.375 376.625 C 554.6875 372.347656 556.226562 367.71875 558.257812 363.304688 C 558.746094 362.320312 559.867188 361.621094 560.707031 360.78125 C 561.476562 361.691406 562.878906 362.460938 562.949219 363.445312 C 563.859375 370.246094 566.941406 375.921875 571.070312 381.320312 C 574.429688 385.738281 576.8125 390.996094 579.542969 395.835938 C 585.84375 386.582031 595.015625 379.078125 604.046875 371.367188 C 605.027344 370.523438 606.007812 369.542969 607.128906 369.121094 C 607.898438 368.84375 609.296875 369.121094 609.925781 369.683594 C 610.347656 370.105469 610.207031 371.71875 609.71875 372.277344 C 606.425781 376.0625 606.496094 380.269531 607.828125 384.757812 C 609.367188 389.804688 610.699219 394.992188 612.167969 400.320312 C 620.007812 394.433594 626.3125 386.089844 635.972656 381.53125 C 635.972656 382.863281 636.042969 383.847656 635.972656 384.757812 C 634.640625 396.253906 637.511719 406.632812 643.8125 416.308594 C 647.664062 422.195312 651.234375 428.367188 654.875 434.324219 C 658.515625 427.386719 664.1875 421.566406 670.839844 416.519531 C 677.28125 411.609375 683.582031 406.632812 689.601562 402.003906 C 687.363281 422.195312 692.261719 442.667969 693.382812 464.125 C 705.566406 455.851562 712.078125 443.859375 719.078125 431.03125 C 721.878906 458.304688 719.289062 484.035156 711.796875 509.835938 C 726.921875 503.035156 742.53125 498.828125 756.253906 489.222656 C 755.136719 495.464844 754.226562 501.773438 752.824219 508.011719 C 751.425781 514.113281 749.605469 520.140625 747.855469 526.664062 C 758.355469 523.15625 769.066406 524.488281 779.710938 524.070312 C 785.242188 523.859375 790.28125 522.457031 795.113281 518.878906 C 792.523438 524.558594 790.28125 530.378906 787.339844 535.917969 C 777.328125 555.058594 763.257812 570.410156 744.074219 580.648438 C 730.5625 587.871094 716.066406 592.285156 700.875 593.617188 C 689.742188 594.53125 678.539062 594.390625 667.410156 594.671875 C 665.589844 594.742188 663.699219 594.671875 661.175781 594.671875 C 672.660156 603.292969 683.933594 611.566406 689.953125 625.871094 C 671.679688 615.632812 653.125 618.367188 634.152344 619.910156 C 636.113281 623.554688 638.214844 626.640625 639.542969 630.078125 C 640.3125 631.96875 639.964844 634.351562 640.105469 636.527344 C 638.351562 635.546875 636.460938 634.84375 634.921875 633.582031 C 629.460938 629.023438 623.230469 627.34375 616.300781 628.535156 C 611.1875 629.445312 606.007812 630.496094 600.964844 631.898438 C 585.28125 636.246094 572.539062 631.757812 562.386719 619.28125 C 561.828125 618.578125 561.128906 617.878906 560.5 617.246094 C 560.429688 617.175781 560.289062 617.175781 560.21875 617.175781 C 557.277344 619.980469 554.476562 622.855469 551.464844 625.519531 C 543.554688 632.742188 534.3125 635.054688 523.882812 632.8125 C 519.332031 631.828125 514.78125 630.777344 510.296875 629.65625 C 498.675781 626.710938 488.664062 629.515625 480.332031 638.210938 C 479.28125 634.28125 480.054688 631.96875 486.492188 620.332031 C 467.871094 618.085938 449.597656 615.773438 431.671875 625.027344 C 438.113281 609.605469 450.085938 600.488281 464.089844 593.410156 C 464.019531 593.058594 463.949219 592.777344 463.878906 592.425781 C 461.917969 592.355469 459.890625 591.9375 458 592.214844 C 451.207031 593.199219 444.484375 594.742188 437.625 595.371094 C 411.019531 597.824219 387.144531 590.535156 366.070312 574.269531 C 347.796875 560.175781 335.125 541.597656 325.464844 520.84375 C 325.253906 520.351562 325.183594 519.792969 324.832031 518.601562 C 331.90625 523.929688 339.324219 524.839844 347.167969 524.628906 C 355.640625 524.417969 364.25 523.929688 372.300781 527.082031 Z M 590.183594 591.023438 C 590.324219 591.234375 590.535156 591.445312 590.675781 591.65625 C 594.804688 588.011719 599.355469 584.714844 602.925781 580.578125 C 616.230469 565.363281 619.308594 547.273438 616.648438 527.785156 C 613.917969 508.152344 604.957031 491.398438 592.632812 476.113281 C 581.292969 462.089844 570.300781 447.859375 559.097656 433.625 C 559.65625 433.273438 559.378906 433.34375 559.308594 433.554688 C 547.265625 450.242188 535.082031 466.859375 523.25 483.753906 C 512.050781 499.738281 504.628906 517.40625 503.085938 537.109375 C 501.828125 553.867188 505.609375 569.148438 517.648438 581.558594 C 521.5 585.484375 525.980469 588.640625 532.144531 590.953125 C 529.480469 587.871094 527.523438 585.625 525.632812 583.242188 C 514.640625 569.5 511 554.074219 518.351562 537.808594 C 523.671875 525.960938 530.53125 514.742188 537.253906 503.597656 C 548.175781 485.4375 558.679688 467.207031 559.097656 445.894531 C 560.917969 452.765625 562.390625 460.40625 564.910156 467.769531 C 569.671875 481.792969 577.863281 494.0625 585.5625 506.539062 C 591.023438 515.445312 596.554688 524.417969 601.035156 533.8125 C 607.476562 547.207031 607.96875 561.15625 600.824219 574.617188 C 597.675781 580.296875 593.753906 585.554688 590.183594 591.023438 Z M 574.011719 597.195312 C 580.871094 592.007812 586.542969 585.765625 590.953125 578.40625 C 597.746094 567.046875 599.003906 554.988281 594.59375 542.4375 C 591.234375 532.972656 585.632812 524.839844 580.03125 516.707031 C 573.171875 506.820312 564.769531 497.777344 562.457031 485.296875 C 562.320312 484.527344 561.128906 483.894531 560.5 483.195312 C 559.796875 484.035156 558.957031 484.804688 558.46875 485.789062 C 555.527344 491.816406 553.148438 498.199219 549.714844 503.945312 C 543.835938 513.761719 537.113281 523.015625 531.234375 532.761719 C 526.960938 539.773438 524.019531 547.484375 523.320312 555.757812 C 521.570312 575.53125 532.984375 587.730469 548.105469 598.527344 C 547.824219 597.40625 547.824219 596.914062 547.617188 596.5625 C 541.105469 584.152344 540.753906 571.113281 543.484375 557.722656 C 546.984375 540.964844 553.355469 525.191406 559.867188 509.484375 C 559.9375 509.34375 560.21875 509.414062 560.566406 509.273438 C 560.988281 510.046875 561.476562 510.816406 561.757812 511.660156 C 566.308594 524.628906 571.421875 537.460938 575.269531 550.570312 C 579.683594 565.996094 581.640625 581.699219 574.011719 597.195312 Z M 486.773438 532.550781 C 487.054688 532.410156 487.402344 532.339844 487.683594 532.203125 C 487.683594 531.148438 487.613281 530.097656 487.683594 529.046875 C 488.246094 514.953125 491.535156 501.632812 498.1875 489.152344 C 503.789062 478.636719 511.628906 469.941406 520.449219 462.019531 C 524.652344 458.234375 528.363281 453.675781 525.910156 447.648438 C 523.179688 440.988281 520.171875 434.324219 516.109375 428.4375 C 510.789062 420.792969 504.277344 413.992188 498.328125 406.84375 C 497.554688 405.929688 496.714844 405.089844 496.296875 404.667969 C 493.074219 411.609375 490.203125 418.550781 486.703125 425.070312 C 477.8125 441.898438 471.792969 459.566406 471.300781 478.707031 C 471.089844 486.628906 471.300781 494.550781 471.300781 502.472656 C 471.441406 502.472656 470.949219 502.472656 470.53125 502.472656 C 469.972656 502.472656 469.480469 502.472656 468.570312 502.472656 C 473.261719 513.761719 478.511719 524.070312 486.773438 532.550781 Z M 623.371094 404.457031 C 614.269531 417.5 603.066406 429.347656 596.34375 444.351562 C 592.496094 452.976562 592.425781 455.007812 599.636719 461.25 C 616.789062 476.113281 627.152344 494.691406 631.210938 516.917969 C 632.191406 522.386719 632.960938 527.925781 633.941406 534.023438 C 640.875 523.71875 648.015625 514.324219 651.375 502.332031 C 649.976562 502.332031 648.996094 502.332031 647.734375 502.332031 C 647.945312 499.808594 648.15625 497.496094 648.296875 495.183594 C 649.695312 475.761719 648.714844 456.550781 640.664062 438.53125 C 635.484375 427.035156 629.179688 416.027344 623.371094 404.457031 Z M 735.953125 513.199219 C 720.269531 518.179688 706.195312 524.347656 694.785156 535.355469 C 687.011719 542.859375 679.449219 550.570312 671.46875 557.863281 C 663.417969 565.222656 654.667969 571.742188 644.722656 576.511719 C 636.882812 580.296875 628.550781 581.628906 620.078125 582.542969 C 615.527344 583.03125 611.328125 584.433594 607.828125 588.21875 C 609.4375 588.429688 610.558594 588.570312 611.679688 588.640625 C 631.5625 589.902344 651.234375 588.570312 670.347656 582.609375 C 700.453125 573.214844 722.300781 554.847656 732.800781 524.347656 C 733.921875 520.914062 734.761719 517.335938 735.953125 513.199219 Z M 512.1875 588.21875 C 507.429688 584.574219 502.667969 583.3125 497.695312 582.609375 C 483.273438 580.578125 469.691406 576.230469 458.488281 566.554688 C 450.996094 560.105469 443.996094 553.09375 436.925781 546.152344 C 427.261719 536.617188 417.53125 527.222656 405.347656 521.054688 C 399.1875 517.96875 392.605469 515.867188 385.324219 513.0625 C 389.246094 532.550781 397.367188 548.328125 411.019531 560.945312 C 419.910156 569.21875 430.34375 575.109375 441.683594 579.246094 C 464.160156 587.449219 487.472656 589.410156 512.1875 588.21875 Z M 679.941406 424.089844 C 672.730469 428.859375 666.5 434.046875 662.226562 441.195312 C 660.265625 444.421875 659.777344 447.4375 660.96875 451.363281 C 666.359375 468.890625 667.058594 486.699219 662.578125 504.578125 C 658.867188 519.300781 652.984375 532.761719 639.472656 541.597656 C 635.414062 544.261719 632.613281 548.1875 630.652344 553.304688 C 631.703125 553.023438 632.261719 552.882812 632.753906 552.671875 C 647.035156 547.976562 657.117188 537.949219 665.449219 526.101562 C 677.839844 508.433594 683.371094 488.382812 684.351562 466.929688 C 684.84375 452.625 683.371094 438.53125 679.941406 424.089844 Z M 488.945312 551.273438 C 489.15625 550.992188 489.363281 550.710938 489.574219 550.429688 C 486.914062 547.976562 484.183594 545.59375 481.59375 543.070312 C 477.042969 538.511719 471.371094 534.445312 468.289062 528.976562 C 454.359375 504.367188 451.066406 478.285156 459.679688 451.082031 C 460.519531 448.417969 460.519531 446.105469 459.328125 443.722656 C 455.128906 435.519531 448.40625 429.839844 440.707031 424.859375 C 440.355469 425.632812 440.074219 425.984375 440.003906 426.472656 C 433.703125 455.851562 434.335938 484.664062 447.078125 512.429688 C 453.308594 525.960938 461.917969 537.738281 474.523438 546.152344 C 478.863281 549.027344 483.625 551.203125 488.945312 551.273438 Z M 709.835938 469.523438 C 705.144531 473.730469 699.824219 478.777344 694.152344 483.332031 C 691.84375 485.226562 690.933594 487.261719 690.511719 489.996094 C 687.433594 509.132812 678.75 525.46875 665.519531 539.421875 C 654.597656 550.921875 641.644531 559.265625 627.152344 565.433594 C 622.601562 567.398438 620.078125 571.253906 618.539062 576.230469 C 674.199219 564.101562 707.804688 523.367188 709.835938 469.523438 Z M 410.738281 468.121094 C 412.488281 525.820312 450.015625 565.785156 502.105469 576.160156 C 500.214844 571.253906 497.484375 567.675781 492.933594 565.222656 C 484.042969 560.457031 474.871094 555.96875 466.820312 549.9375 C 446.515625 534.585938 433.773438 514.253906 429.785156 488.730469 C 429.574219 487.46875 429.011719 485.929688 428.171875 485.085938 C 422.5 479.335938 416.621094 473.796875 410.738281 468.121094 Z M 561.410156 527.503906 C 560.988281 527.574219 560.636719 527.574219 560.21875 527.644531 C 559.726562 528.484375 559.167969 529.328125 558.746094 530.238281 C 551.328125 547.484375 548.246094 565.503906 550.066406 584.222656 C 550.488281 588.851562 552.027344 593.617188 554.195312 597.753906 C 557.136719 603.503906 564.070312 603.222656 567.148438 597.40625 C 568.550781 594.742188 569.601562 591.796875 570.089844 588.921875 C 572.46875 576.230469 571.210938 563.539062 568.410156 551.0625 C 566.519531 543.136719 563.71875 535.355469 561.410156 527.503906 Z M 771.867188 538.652344 C 770.398438 538.511719 769.976562 538.441406 769.488281 538.371094 C 752.125 536.898438 738.542969 544.890625 726.148438 555.828125 C 719.640625 561.648438 713.40625 567.816406 706.6875 573.355469 C 702.207031 577.074219 697.023438 580.015625 691.421875 583.804688 C 725.238281 580.71875 750.863281 564.734375 771.867188 538.652344 Z M 427.824219 582.402344 C 415.011719 576.933594 406.398438 567.1875 397.085938 558.421875 C 390.644531 552.394531 383.996094 546.503906 375.734375 542.859375 C 367.679688 539.28125 359.417969 537.25 350.386719 538.019531 C 364.949219 562.347656 399.46875 583.171875 427.824219 582.402344 Z M 581.152344 602.382812 C 610.136719 612.058594 639.402344 610.65625 669.367188 610.796875 C 663.558594 604.90625 657.046875 602.242188 650.394531 600.070312 C 636.53125 595.441406 622.179688 593.476562 607.757812 591.65625 C 598.9375 590.535156 591.792969 594.8125 584.582031 598.808594 C 583.324219 599.367188 582.621094 600.699219 581.152344 602.382812 Z M 453.167969 610.023438 C 453.308594 610.304688 453.519531 610.515625 453.65625 610.796875 C 454.429688 610.796875 455.199219 610.796875 455.96875 610.796875 C 464.371094 610.585938 472.769531 610.585938 481.171875 610.164062 C 493.707031 609.605469 506.308594 609.113281 518.839844 607.992188 C 525.980469 607.359375 532.914062 605.328125 539.703125 600.980469 C 534.664062 598.457031 530.113281 596.210938 525.5625 593.898438 C 521.359375 591.726562 517.089844 591.023438 512.398438 591.796875 C 503.578125 593.199219 494.617188 594.109375 485.792969 595.722656 C 476.273438 597.40625 466.960938 599.859375 458.699219 605.1875 C 456.667969 606.519531 454.988281 608.414062 453.167969 610.023438 Z M 534.382812 445.402344 C 534.875 445.125 535.714844 444.984375 536.0625 444.492188 C 539.84375 439.304688 543.554688 434.117188 547.195312 428.859375 C 547.546875 428.367188 547.335938 427.316406 547.054688 426.613281 C 543.695312 416.378906 539.496094 406.492188 532.5625 398.148438 C 529.273438 394.222656 525.421875 390.996094 520.308594 389.246094 C 517.511719 397.378906 516.949219 405.441406 520.101562 413.152344 C 524.441406 423.878906 529.550781 434.464844 534.382812 445.402344 Z M 586.613281 444.5625 C 589.484375 437.902344 591.933594 432.152344 594.523438 426.472656 C 596.414062 422.335938 598.65625 418.410156 600.40625 414.203125 C 604.046875 405.511719 603.488281 397.027344 598.027344 388.753906 C 595.855469 390.507812 593.753906 391.839844 592.074219 393.519531 C 582.902344 402.707031 577.230469 413.992188 573.171875 426.125 C 572.890625 426.894531 573.03125 428.085938 573.519531 428.71875 C 577.792969 434.046875 582.132812 439.234375 586.613281 444.5625 Z M 559.867188 375.503906 C 549.296875 387.28125 548.175781 411.257812 553.636719 418.339844 C 556.789062 413.082031 556.507812 406.210938 561.199219 401.445312 C 563.230469 407.332031 563.367188 413.574219 568.410156 418.691406 C 571.421875 402.636719 571.980469 387.984375 559.867188 375.503906 Z M 495.945312 621.664062 C 496.574219 621.875 496.855469 622.015625 497.136719 622.015625 C 509.738281 622.015625 522.269531 622.292969 534.804688 621.875 C 539.285156 621.734375 543.976562 620.332031 548.175781 618.578125 C 553.496094 616.335938 556.367188 611.777344 557.136719 605.816406 C 553.285156 604.625 549.714844 603.503906 546.144531 602.59375 C 545.304688 602.382812 543.976562 602.734375 543.484375 603.292969 C 540.054688 607.5 535.363281 609.535156 530.390625 610.726562 C 523.742188 612.339844 516.949219 613.460938 510.230469 614.792969 C 505.117188 615.84375 500.078125 617.457031 495.945312 621.664062 Z M 624.558594 621.101562 C 622.460938 619.839844 621.199219 618.648438 619.730469 618.226562 C 613.777344 616.613281 607.828125 615.144531 601.804688 613.8125 C 592.773438 611.847656 583.253906 611.078125 576.8125 603.011719 C 576.53125 602.664062 575.761719 602.523438 575.269531 602.664062 C 571.210938 603.503906 567.148438 604.414062 563.019531 605.328125 C 564.417969 611.988281 567.5 617.246094 573.589844 619.488281 C 578.28125 621.242188 583.53125 622.433594 588.503906 622.433594 C 600.125 622.503906 611.75 621.664062 624.558594 621.101562 Z M 624.558594 621.101562 "/>
</g>
<path style=" stroke:none;fill-rule:nonzero;fill:rgb(0%,24.708557%,37.249756%);fill-opacity:1;" d="M 491.183594 430.75 C 492.65625 437.128906 494.195312 443.582031 495.734375 450.3125 C 497.066406 449.75 498.046875 449.328125 499.304688 448.839844 C 502.105469 455.5 504.835938 462.160156 507.707031 468.960938 C 496.296875 479.058594 490.835938 492.378906 487.335938 506.820312 C 486.984375 506.890625 486.632812 506.960938 486.285156 507.03125 C 485.023438 503.734375 483.34375 500.582031 482.574219 497.144531 C 479.773438 485.15625 480.542969 473.027344 481.242188 460.757812 C 482.363281 460.898438 483.34375 461.039062 483.972656 461.179688 C 485.933594 450.941406 487.824219 440.777344 489.785156 430.609375 C 490.273438 430.679688 490.765625 430.679688 491.183594 430.75 Z M 491.183594 430.75 "/>
<path style=" stroke:none;fill-rule:nonzero;fill:rgb(0%,24.708557%,37.249756%);fill-opacity:1;" d="M 613.707031 470.152344 C 616.578125 462.929688 619.378906 455.851562 622.320312 448.488281 C 623.582031 449.328125 624.492188 449.960938 626.101562 451.011719 C 627.429688 444.421875 628.691406 438.042969 629.953125 431.730469 C 630.300781 431.660156 630.722656 431.660156 631.070312 431.589844 C 632.683594 438.390625 634.363281 445.191406 635.902344 452.0625 C 636.394531 454.238281 636.394531 456.480469 636.742188 458.65625 C 636.953125 459.988281 636.460938 461.949219 638.984375 461.808594 C 639.261719 461.808594 639.964844 462.792969 639.964844 463.28125 C 640.453125 475.832031 641.785156 488.523438 638.074219 500.863281 C 637.371094 503.105469 636.113281 505.136719 634.710938 507.242188 C 630.371094 493.148438 626.589844 479.128906 613.707031 470.152344 Z M 613.707031 470.152344 "/>
<path style=" stroke:none;fill-rule:nonzero;fill:rgb(0%,24.708557%,37.249756%);fill-opacity:1;" d="M 652.214844 574.6875 C 671.820312 561.859375 691.421875 549.027344 711.308594 535.988281 C 710.328125 555.546875 674.199219 579.808594 652.847656 575.742188 C 652.566406 575.390625 652.355469 575.039062 652.214844 574.6875 Z M 652.214844 574.6875 "/>
<path style=" stroke:none;fill-rule:nonzero;fill:rgb(0%,24.708557%,37.249756%);fill-opacity:1;" d="M 409.199219 534.445312 C 418.230469 542.367188 428.804688 546.925781 438.886719 552.394531 C 444.765625 555.546875 449.386719 561.085938 454.636719 565.503906 C 458.839844 569.007812 463.109375 572.304688 467.03125 575.460938 C 448.96875 581.769531 414.378906 557.863281 409.199219 534.445312 Z M 409.199219 534.445312 "/>
<path style=" stroke:none;fill-rule:nonzero;fill:rgb(0%,24.708557%,37.249756%);fill-opacity:1;" d="M 663.277344 513.761719 C 664.957031 506.890625 667.269531 500.441406 667.96875 493.851562 C 668.738281 486.417969 667.828125 478.777344 667.898438 471.203125 C 667.898438 469.03125 668.25 466.578125 669.300781 464.683594 C 672.871094 458.304688 676.789062 452.132812 681.203125 444.914062 C 681.203125 451.785156 681.339844 457.953125 681.203125 464.125 C 680.78125 477.234375 679.730469 490.203125 673.570312 502.195312 C 671.121094 506.820312 667.96875 510.957031 663.277344 513.761719 Z M 663.277344 513.761719 "/>
<path style=" stroke:none;fill-rule:nonzero;fill:rgb(0%,24.708557%,37.249756%);fill-opacity:1;" d="M 441.265625 447.367188 C 445.257812 452.90625 450.085938 458.023438 452.957031 464.054688 C 454.847656 467.910156 454.078125 473.097656 454.148438 477.726562 C 454.21875 484.734375 453.378906 491.746094 453.867188 498.617188 C 454.21875 503.246094 456.179688 507.734375 457.4375 512.007812 C 455.058594 512.078125 452.539062 510.46875 449.878906 506.75 C 444.90625 499.808594 443.15625 491.746094 441.753906 483.613281 C 439.726562 471.695312 439.515625 459.777344 440.355469 447.789062 C 440.636719 447.71875 440.914062 447.507812 441.265625 447.367188 Z M 441.265625 447.367188 "/>
<path style=" stroke:none;fill-rule:nonzero;fill:rgb(0%,24.708557%,37.249756%);fill-opacity:1;" d="M 648.433594 559.195312 C 656.066406 551.480469 664.609375 543.558594 672.308594 534.796875 C 680.082031 526.03125 687.011719 516.496094 694.433594 507.03125 C 694.433594 528.203125 671.191406 554.566406 648.433594 559.195312 Z M 648.433594 559.195312 "/>
<path style=" stroke:none;fill-rule:nonzero;fill:rgb(0%,24.708557%,37.249756%);fill-opacity:1;" d="M 425.792969 507.101562 C 442.734375 524.136719 454.496094 544.609375 473.261719 559.195312 C 456.179688 559.542969 428.59375 529.46875 425.792969 507.101562 Z M 425.792969 507.101562 "/>
<path style=" stroke:none;fill-rule:nonzero;fill:rgb(0%,24.708557%,37.249756%);fill-opacity:1;" d="M 715.507812 571.253906 C 720.828125 565.433594 726.078125 559.683594 731.472656 553.867188 C 731.960938 553.304688 732.660156 552.8125 733.363281 552.605469 C 740.292969 550.359375 747.222656 548.1875 754.015625 546.082031 C 754.433594 555.339844 728.53125 572.515625 715.507812 571.253906 Z M 715.507812 571.253906 "/>
<path style=" stroke:none;fill-rule:nonzero;fill:rgb(0%,24.708557%,37.249756%);fill-opacity:1;" d="M 406.820312 570.339844 C 393.585938 572.726562 367.613281 555.828125 367.121094 545.453125 C 371.253906 547.066406 375.242188 549.097656 379.445312 550.078125 C 385.535156 551.550781 390.644531 553.65625 394.355469 559.335938 C 396.667969 562.910156 400.65625 565.433594 404.019531 568.378906 C 404.789062 569.148438 405.839844 569.710938 406.820312 570.339844 Z M 406.820312 570.339844 "/>
<path style=" stroke:none;fill-rule:nonzero;fill:rgb(0%,24.708557%,37.249756%);fill-opacity:1;" d="M 587.035156 602.101562 C 589.0625 600.910156 591.023438 599.226562 593.195312 598.667969 C 609.4375 594.742188 625.261719 596.003906 640.382812 603.292969 C 641.292969 603.714844 641.992188 604.484375 642.695312 605.398438 C 624.210938 605.1875 605.65625 607.078125 587.382812 603.152344 C 587.242188 602.804688 587.171875 602.453125 587.035156 602.101562 Z M 587.035156 602.101562 "/>
<path style=" stroke:none;fill-rule:nonzero;fill:rgb(0%,24.708557%,37.249756%);fill-opacity:1;" d="M 534.242188 602.734375 C 515.199219 606.871094 496.367188 603.855469 477.460938 606.589844 C 485.933594 594.8125 526.75 592.007812 534.242188 602.734375 Z M 534.242188 602.734375 "/>
<path style=" stroke:none;fill-rule:nonzero;fill:rgb(0%,24.708557%,37.249756%);fill-opacity:1;" d="M 535.152344 438.882812 C 529.480469 427.035156 525.492188 414.835938 525.351562 400.882812 C 532.421875 407.261719 538.375 413.644531 541.105469 422.335938 C 543.203125 429.136719 541.246094 434.394531 535.152344 438.882812 Z M 535.152344 438.882812 "/>
<path style=" stroke:none;fill-rule:nonzero;fill:rgb(0%,24.708557%,37.249756%);fill-opacity:1;" d="M 585.703125 438.324219 C 578.5625 433.0625 576.953125 428.015625 580.941406 420.722656 C 584.722656 413.855469 589.34375 407.472656 593.824219 400.53125 C 597.675781 408.875 592.703125 425.421875 585.703125 438.324219 Z M 585.703125 438.324219 "/>
<path style=" stroke:none;fill-rule:nonzero;fill:rgb(0%,24.708557%,37.249756%);fill-opacity:1;" d="M 519.539062 617.175781 C 530.460938 612.546875 541.664062 609.042969 553.988281 607.921875 C 552.585938 612.828125 549.4375 615.84375 545.375 617.527344 C 536.832031 621.03125 528.152344 619.699219 519.539062 617.175781 Z M 519.539062 617.175781 "/>
<path style=" stroke:none;fill-rule:nonzero;fill:rgb(0%,24.708557%,37.249756%);fill-opacity:1;" d="M 566.308594 609.042969 C 570.648438 609.042969 574.640625 608.273438 578.140625 609.183594 C 585.984375 611.285156 593.613281 614.230469 601.667969 616.964844 C 588.921875 622.015625 572.820312 619.558594 566.308594 609.042969 Z M 566.308594 609.042969 "/>
<path style=" stroke:none;fill-rule:nonzero;fill:rgb(0%,24.708557%,37.249756%);fill-opacity:1;" d="M 560.359375 380.972656 C 560.359375 380.972656 555.386719 390.785156 560.988281 399.972656 C 560.988281 399.972656 566.238281 389.035156 560.359375 380.972656 Z M 560.359375 380.972656 "/>
<path style=" stroke:none;fill-rule:nonzero;fill:rgb(0%,24.708557%,37.249756%);fill-opacity:1;" d="M 559.449219 542.507812 C 559.449219 542.507812 549.507812 572.375 559.796875 599.578125 C 559.796875 599.578125 570.019531 586.609375 559.449219 542.507812 Z M 559.449219 542.507812 "/>
</g>
</svg>
